<?xml version="1.0" encoding="utf-8"?>
<?xml-stylesheet type="text/xsl" href="rss1.xsl"?>
<rss version="2.0" xmlns:atom="http://www.w3.org/2005/Atom" xmlns:content="http://purl.org/rss/1.0/modules/content/" xmlns:dc="http://purl.org/dc/elements/1.1/" xmlns:media="http://search.yahoo.com/mrss/">
<channel>
 <title>Getty</title>
 <link>http://www.gettyimg.com/</link>
 <atom:link href="http://www.gettyimg.com/" rel="self" type="application/rss+xml" />

 
                <item>
                <title><![CDATA[【Singles (lossy)】iTunes Plus - Taylor Swift - Fortnight (feat. Post Malone) - (Website Single Cover)]]></title>
                <link><![CDATA[https://sharemania.us/threads/taylor-swift-fortnight-feat-post-malone-website-single-cover.242606/]]></link>
                <description><![CDATA[<article>
<blockquote class="messageText SelectQuoteContainer ugc baseHtml">
<div style="text-align: center"><img src="https://images2.imgbox.com/39/c2/6BDMlAU1_o.jpg" class="bbCodeImage LbImage" alt="[​IMG]" data-url="https://images2.imgbox.com/39/c2/6BDMlAU1_o.jpg" style=""> <br>
<b><br>
<span style="color: #ff0000">It's marked "iTunes Plus" because the track was purchased there! However, it was edited for a website cover</span></b>​</div><ul>
<li><b>Genres: Pop</b></li>
<li><b>Published by:</b> <a href="https://sharemania.us/members/109650/" class="username" data-user="109650, @sebastianswif13">@sebastianswif13</a></li>
<li><b>Released: April 19, 2024</b></li>
<li>Bit Rate: 256 kbps</li>
<li><b>Purchase date: 19/04/2024 01:20</b></li>
<li><b>Purchased by: Sebastian Varlack</b></li>
<li>℗ 2024 Taylor Swift<br>
</li>
<li><b>Filename: FRTG.rar</b></li>
<li><b>Size: 7,53 MB</b></li>
<li><b>Request by: <a href="https://sharemania.us/members/10063/" class="username" data-user="10063, @bruno1901">@bruno1901</a> </b></li>
</ul><div style="text-align: center"><b><span style="color: #ff0000">PASSWORD: sharemania.us</span></b>​</div><b><b><div style="text-align: center"><b>Download Track:<br>
<div class="bbCodeBlock bbCodeVfcHH HiddenContent">
<div class="attribution type">Hidden Content:</div>
<blockquote>You must reply before you can see the hidden data contained here.</blockquote>
</div>Download Music Video:<br>
Coming soon<br>
<br>
<b><b>If any link is down, please inform me by means of the replys; Thank you - Sebastian Swift<br>
Please do not type random letters when making a reply<br>
<br>
You can place an order in my profile, if I have it in my personal collection I can post it!</b></b></b>​</div></b></b>
<div class="messageTextEndMarker">&nbsp;</div>
</blockquote>
</article>]]></description>
                <author><![CDATA[sebastianswif13]]></author>
                </item>

                
                <item>
                <title><![CDATA[【Requests】[REQ AUD] - Lykke Li albums FLAC]]></title>
                <link><![CDATA[https://sharemania.us/threads/lykke-li-albums-flac.242608/]]></link>
                <description><![CDATA[<article>
<blockquote class="messageText SelectQuoteContainer ugc baseHtml">
Thanks
<div class="messageTextEndMarker">&nbsp;</div>
</blockquote>
</article>]]></description>
                <author><![CDATA[Espino]]></author>
                </item>

                
                <item>
                <title><![CDATA[【Apple Music】WEB-RiP - Mimi Webb - Mistake 'A.M WEB-DL.4K.AAC2.0-fstambuk']]></title>
                <link><![CDATA[https://sharemania.us/threads/mimi-webb-mistake-a-m-web-dl-4k-aac2-0-fstambuk.242609/]]></link>
                <description><![CDATA[<article>
<blockquote class="messageText SelectQuoteContainer ugc baseHtml">
Hi, Please could somebody share these albums in flac<br>
<br>
<a href="https://www.qobuz.com/cl-es/album/i-never-learn-hi-res-version-lykke-li/0825646295920" target="_blank" class="externalLink" rel="nofollow">https://www.qobuz.com/cl-es/album/i-never-learn-hi-res-version-lykke-li/0825646295920</a><br>
<a href="https://www.qobuz.com/cl-es/album/so-sad-so-sexy-lykke-li/rtmzvatt1k7ib" target="_blank" class="externalLink" rel="nofollow">https://www.qobuz.com/cl-es/album/so-sad-so-sexy-lykke-li/rtmzvatt1k7ib</a><br>
<a href="https://www.qobuz.com/cl-es/album/wounded-rhymes-lykke-li/0825646752058" target="_blank" class="externalLink" rel="nofollow">https://www.qobuz.com/cl-es/album/wounded-rhymes-lykke-li/0825646752058</a><br>
<a href="https://www.qobuz.com/cl-es/album/i-follow-rivers-lykke-li/0825646638734" target="_blank" class="externalLink" rel="nofollow">https://www.qobuz.com/cl-es/album/i-follow-rivers-lykke-li/0825646638734</a><br>
<br>
thanks in advance <img src="styles/default/xenforo/smilies/big_smile-48.png" class="mceSmilie" alt=":)" title="Smile    :)">
<div class="messageTextEndMarker">&nbsp;</div>
</blockquote>
</article>]]></description>
                <author><![CDATA[fstambuk]]></author>
                </item>

                
                <item>
                <title><![CDATA[【HD Live Performances】Take That Live in London 2015 1080p AMZN WEB-DL DDP2.0 H.264-SiGLA]]></title>
                <link><![CDATA[https://sharemania.us/threads/take-that-live-in-london-2015-1080p-amzn-web-dl-ddp2-0-h-264-sigla.242607/]]></link>
                <description><![CDATA[<article>
<blockquote class="messageText SelectQuoteContainer ugc baseHtml">
<div style="text-align: center"><img src="https://i.ibb.co/P5GFVvn/Mimi-Webb-Mistake-VTM.gif" class="bbCodeImage LbImage" alt="[​IMG]" data-url="https://i.ibb.co/P5GFVvn/Mimi-Webb-Mistake-VTM.gif" style=""><br>
​</div>
<div class="ToggleTriggerAnchor bbCodeSpoilerContainer">
<button type="button" class="button bbCodeSpoilerButton ToggleTrigger Tooltip JsOnly" data-target="> .SpoilerTarget"><span>Spoiler: <span class="SpoilerTitle">Apple Music</span></span></button>
<div class="SpoilerTarget bbCodeSpoilerText">
<div class="bbCodeBlock bbCodeCode">
<div class="type">Code:</div>
<pre>General
Complete name                            : Mimi Webb - Mistake 'A.M WEB-DL.4K.AAC2.0-fstambuk'.mp4
Format                                   : MPEG-4
Format profile                           : Base Media
Codec ID                                 : isom (isom/iso4)
File size                                : 378 MiB
Duration                                 : 2 min 30 s
Overall bit rate mode                    : Variable
Overall bit rate                         : 21.1 Mb/s
Frame rate                               : 23.976 FPS
Movie name                               : Mistake (Official Music Video)
Performer                                : Mimi Webb
Genre                                    : Pop
ContentType                              : Music Video
Recorded date                            : 2024-04-20
Encoded date                             : 2024-04-19 16:45:41 UTC
Tagged date                              : 2024-04-19 16:45:41 UTC
ISRC                                     : USSM22400438
Cover                                    : Yes

Video
ID                                       : 1
Format                                   : HEVC
Format/Info                              : High Efficiency Video Coding
Format profile                           : Main 10@L5@High
Codec ID                                 : hvc1
Codec ID/Info                            : High Efficiency Video Coding
Duration                                 : 2 min 30 s
Bit rate                                 : 20.7 Mb/s
Maximum bit rate                         : 44.4 Mb/s
Width                                    : 3 840 pixels
Height                                   : 2 160 pixels
Display aspect ratio                     : 16:9
Frame rate mode                          : Constant
Frame rate                               : 23.976 (24000/1001) FPS
Color space                              : YUV
Chroma subsampling                       : 4:2:0
Bit depth                                : 10 bits
Scan type                                : Progressive
Bits/(Pixel*Frame)                       : 0.104
Stream size                              : 371 MiB (98%)
Default                                  : Yes
Alternate group                          : 1
Encoded date                             : 2024-04-18 03:44:57 UTC
Tagged date                              : 2024-04-19 16:45:48 UTC
Color range                              : Limited
Color primaries                          : BT.709
Transfer characteristics                 : BT.709
Matrix coefficients                      : BT.709
Codec configuration box                  : hvcC

Audio
ID                                       : 2
Format                                   : AAC LC
Format/Info                              : Advanced Audio Codec Low Complexity
Codec ID                                 : 2 / 40 / mp4a-40-2
Duration                                 : 2 min 30 s
Duration_LastFrame                       : -15 ms
Bit rate mode                            : Variable
Bit rate                                 : 250 kb/s
Maximum bit rate                         : 430 kb/s
Channel(s)                               : 2 channels
Channel layout                           : L R
Sampling rate                            : 48.0 kHz
Frame rate                               : 46.875 FPS (1024 SPF)
Compression mode                         : Lossy
Stream size                              : 4.48 MiB (1%)
Language                                 : English
Default                                  : Yes
Alternate group                          : 2
Encoded date                             : 2024-04-18 03:28:10 UTC
Tagged date                              : 2024-04-19 16:45:48 UTC

</pre>
</div><div style="text-align: center">​</div></div>
</div><div style="text-align: center">
<div class="bbCodeBlock bbCodeVfcHH HiddenContent">
<div class="attribution type">Hidden Content:</div>
<blockquote>You must reply before you can see the hidden data contained here.</blockquote>
</div></div>
<div class="messageTextEndMarker">&nbsp;</div>
</blockquote>
</article>]]></description>
                <author><![CDATA[-C.A.A]]></author>
                </item>

                
                <item>
                <title><![CDATA[【DVD】DVD9 - Destiny's Child World Tour]]></title>
                <link><![CDATA[https://sharemania.us/threads/destinys-child-world-tour.242605/]]></link>
                <description><![CDATA[<article>
<blockquote class="messageText SelectQuoteContainer ugc baseHtml">
<b><span style="font-family: 'Tahoma'">Thanks <img src="styles/default/xenforo/smilies/greedy-48.png" class="mceSmilie" alt=":greedy:" title="Greedy    :greedy:"></span></b>
<div class="messageTextEndMarker">&nbsp;</div>
</blockquote>
</article>]]></description>
                <author><![CDATA[Kweennayy]]></author>
                </item>

                
                <item>
                <title><![CDATA[【Albums (lossy)】Dolby Atmos - Taylor Swift - The Tortured Poets Department: The Antology (Dolby Atmos)]]></title>
                <link><![CDATA[https://sharemania.us/threads/taylor-swift-the-tortured-poets-department-the-antology-dolby-atmos.242610/]]></link>
                <description><![CDATA[<article>
<blockquote class="messageText SelectQuoteContainer ugc baseHtml">
<div style="text-align: center"><br>
<img src="https://ptpimg.me/lnxy78.png" class="bbCodeImage LbImage" alt="[​IMG]" data-url="https://ptpimg.me/lnxy78.png" style=""><br>
<img src="https://ptpimg.me/44x0as.jpg" class="bbCodeImage LbImage" alt="[​IMG]" data-url="https://ptpimg.me/44x0as.jpg" style="">​</div>
<div class="ToggleTriggerAnchor bbCodeSpoilerContainer">
<button type="button" class="button bbCodeSpoilerButton ToggleTrigger Tooltip JsOnly" data-target="> .SpoilerTarget"><span>Spoiler: <span class="SpoilerTitle">MediaInfo</span></span></button>
<div class="SpoilerTarget bbCodeSpoilerText">General<br>
Unique ID : 64923783683035048086939244345620294689 (0x30D7DDAC43E131B8EE91AAB93E95EC21)<br>
Complete name : Take.That.Live.in.London.2015.1080p.AMZN.WEB-DL.DDP2.0.H.264-SiGLA.mkv<br>
Format : Matroska<br>
Format version : Version 4<br>
File size : 4.40 GiB<br>
Duration : 1 h 4 min<br>
Overall bit rate : 9 806 kb/s<br>
Movie name : Take That - Live in London (2015)<br>
Writing application : mkvmerge v69.0.0 ('SiGLA') 64-bit<br>
Writing library : libebml v1.4.2 + libmatroska v1.6.4<br>
<br>
Video<br>
ID : 1<br>
Format : AVC<br>
Format/Info : Advanced Video Codec<br>
Format profile : High@L4<br>
Format settings : CABAC / 4 Ref Frames<br>
Format settings, CABAC : Yes<br>
Format settings, Reference frames : 4 frames<br>
Codec ID : V_MPEG4/ISO/AVC<br>
Duration : 1 h 4 min<br>
Bit rate mode : Constant<br>
Bit rate : 10 000 kb/s<br>
Width : 1 920 pixels<br>
Height : 1 080 pixels<br>
Display aspect ratio : 16:9<br>
Frame rate mode : Constant<br>
Frame rate : 25.000 FPS<br>
Color space : YUV<br>
Chroma subsampling : 4:2:0<br>
Bit depth : 8 bits<br>
Scan type : Progressive<br>
Bits/(Pixel*Frame) : 0.193<br>
Stream size : 4.30 GiB (98%)<br>
Default : Yes<br>
Forced : No<br>
Color range : Limited<br>
Color primaries : BT.709<br>
Transfer characteristics : BT.709<br>
Matrix coefficients : BT.709<br>
<br>
Audio<br>
ID : 2<br>
Format : E-AC-3<br>
Format/Info : Enhanced AC-3<br>
Commercial name : Dolby Digital Plus<br>
Codec ID : A_EAC3<br>
Duration : 1 h 4 min<br>
Bit rate mode : Constant<br>
Bit rate : 224 kb/s<br>
Channel(s) : 2 channels<br>
Channel layout : L R<br>
Sampling rate : 48.0 kHz<br>
Frame rate : 31.250 FPS (1536 SPF)<br>
Compression mode : Lossy<br>
Stream size : 103 MiB (2%)<br>
Language : English<br>
Service kind : Complete Main<br>
Default : Yes<br>
Forced : No<br>
<br>
Text #1<br>
ID : 3<br>
Format : UTF-8<br>
Codec ID : S_TEXT/UTF8<br>
Codec ID/Info : UTF-8 Plain Text<br>
Duration : 57 min 9 s<br>
Bit rate : 10 b/s<br>
Count of elements : 128<br>
Stream size : 4.22 KiB (0%)<br>
Language : English<br>
Default : No<br>
Forced : No<br>
<br>
Text #2<br>
ID : 4<br>
Format : UTF-8<br>
Codec ID : S_TEXT/UTF8<br>
Codec ID/Info : UTF-8 Plain Text<br>
Duration : 1 h 4 min<br>
Bit rate : 70 b/s<br>
Count of elements : 954<br>
Stream size : 32.9 KiB (0%)<br>
Title : SDH<br>
Language : English<br>
Default : No<br>
Forced : No</div>
</div>
<div class="bbCodeBlock bbCodeVfcHH HiddenContent">
<div class="attribution type">Hidden Content:</div>
<blockquote>You must either reply or click 'Like' to see the hidden information contained here.</blockquote>
</div>
<div class="messageTextEndMarker">&nbsp;</div>
</blockquote>
</article>]]></description>
                <author><![CDATA[nevidbowie]]></author>
                </item>

                </channel></rss>